<svg width="24" height="24" viewBox="0 0 24 24" fill="none" xmlns="http://www.w3.org/2000/svg">
<g id="Group">
<path id="Vector" d="M16.2726 24H7.72736C7.27918 24 6.85341 23.8245 6.53595 23.507L0.492998 17.4641C0.175537 17.1466 0 16.7208 0 16.2726V7.72736C0 7.27918 0.175537 6.85341 0.492998 6.53595L6.53595 0.492998C6.85341 0.175537 7.27918 0 7.72736 0H16.2726C16.7171 0 17.1503 0.179272 17.4641 0.492998L23.507 6.53595C23.8245 6.85341 24 7.27544 24 7.72736V16.2726C24 16.7246 23.8245 17.1466 23.507 17.4641L17.4641 23.507C17.1503 23.8207 16.7171 24 16.2726 24ZM7.95892 21.7591H16.0411L21.7554 16.0448V7.96265L16.0411 2.24837H7.95892L2.24463 7.96265V16.0448L7.95892 21.7591Z" fill="#A7234B"/>
<path id="Vector_2" d="M12.0037 14.0057C11.3352 14.0057 10.7974 13.3372 10.7974 12.5118V7.02909C10.7974 6.20369 11.3389 5.53516 12.0037 5.53516C12.6722 5.53516 13.2101 6.20369 13.2101 7.02909V12.5118C13.2101 13.3372 12.6685 14.0057 12.0037 14.0057Z" fill="#A7234B"/>
<path id="Vector_3" d="M12.0037 18.065C12.8288 18.065 13.4977 17.3962 13.4977 16.5711C13.4977 15.746 12.8288 15.0771 12.0037 15.0771C11.1787 15.0771 10.5098 15.746 10.5098 16.5711C10.5098 17.3962 11.1787 18.065 12.0037 18.065Z" fill="#A7234B"/>
</g>
</svg>
