<svg width="96" height="96" viewBox="0 0 96 96" fill="none" xmlns="http://www.w3.org/2000/svg">
<g id="file-invoice 1" clip-path="url(#clip0_1026_9044)">
<path id="Vector" d="M64 52H32C27.588 52 24 55.588 24 60V68C24 72.412 27.588 76 32 76H64C68.412 76 72 72.412 72 68V60C72 55.588 68.412 52 64 52ZM68 68C68 70.204 66.204 72 64 72H32C29.796 72 28 70.204 28 68V60C28 57.796 29.796 56 32 56H64C66.204 56 68 57.796 68 60V68ZM24 38C24 36.896 24.896 36 26 36H42C43.104 36 44 36.896 44 38C44 39.104 43.104 40 42 40H26C24.896 40 24 39.104 24 38ZM24 22C24 20.896 24.896 20 26 20H42C43.104 20 44 20.896 44 22C44 23.104 43.104 24 42 24H26C24.896 24 24 23.104 24 22ZM80.384 21.556L66.444 7.616C61.532 2.704 55.004 0 48.06 0H26C16.076 0 8 8.076 8 18V78C8 87.924 16.076 96 26 96H70C79.924 96 88 87.924 88 78V39.94C88 32.996 85.296 26.464 80.384 21.556ZM77.556 24.384C79.756 26.584 81.392 29.184 82.48 32H61.996C58.688 32 55.996 29.308 55.996 26V5.516C58.812 6.608 61.412 8.244 63.612 10.44L77.552 24.38L77.556 24.384ZM84 78C84 85.72 77.72 92 70 92H26C18.28 92 12 85.72 12 78V18C12 10.28 18.28 4 26 4H48.06C49.4 4 50.712 4.152 52 4.384V26C52 31.512 56.488 36 62 36H83.616C83.848 37.292 84 38.604 84 39.94V78Z" fill="#69777D"/>
</g>
<defs>
<clipPath id="clip0_1026_9044">
<rect width="96" height="96" fill="white"/>
</clipPath>
</defs>
</svg>
