<svg width="25" height="24" viewBox="0 0 25 24" fill="none" xmlns="http://www.w3.org/2000/svg">
<g id="Layer 32">
<path id="Vector" d="M21.3937 13.9239V6.20769C21.394 6.13479 21.375 6.0631 21.3387 5.99989C21.3023 5.93668 21.25 5.88419 21.1868 5.84774L11.1537 0.0554302C11.0908 0.0191173 11.0195 0 10.9468 0C10.8742 0 10.8029 0.0191173 10.74 0.0554302L0.706871 5.84774C0.643733 5.88419 0.591349 5.93668 0.555021 5.99989C0.518694 6.0631 0.499714 6.13479 0.500003 6.20769V17.7923C0.499714 17.8652 0.518694 17.9369 0.555021 18.0001C0.591349 18.0633 0.643733 18.1158 0.706871 18.1523L10.74 23.9446C10.8029 23.9809 10.8742 24 10.9468 24C11.0195 24 11.0908 23.9809 11.1537 23.9446L14.9229 21.7683C15.3927 22.4265 16.0076 22.9678 16.7201 23.3503C17.4326 23.7328 18.2236 23.9462 19.0318 23.974C19.84 24.0018 20.6438 23.8433 21.3809 23.5107C22.1181 23.1782 22.7688 22.6804 23.2827 22.0561C23.7967 21.4317 24.1601 20.6974 24.3448 19.9101C24.5295 19.1228 24.5306 18.3036 24.348 17.5158C24.1653 16.728 23.8039 15.9928 23.2916 15.3671C22.7793 14.7413 22.1299 14.2419 21.3937 13.9073V13.9239ZM10.9468 0.891178L20.1525 6.20769L15.5352 8.87215L6.98739 3.17914L10.9468 0.891178ZM10.9468 11.5242L1.74121 6.20769L6.18888 3.63839L14.7325 9.33554L10.9468 11.5242ZM13.9464 18.7232C13.9474 19.5331 14.1358 20.3317 14.4967 21.0567L11.3606 22.8689V12.24L15.0842 10.0761V13.2991C15.0842 13.4089 15.1278 13.5141 15.2054 13.5917C15.283 13.6693 15.3882 13.7129 15.4979 13.7129C15.6077 13.7129 15.7129 13.6693 15.7905 13.5917C15.8681 13.5141 15.9117 13.4089 15.9117 13.2991V9.60033L20.5455 6.92345V13.6301C20.1073 13.5104 19.6552 13.4492 19.2009 13.4481C17.8058 13.4546 16.4699 14.0132 15.4854 15.0016C14.5008 15.9901 13.9475 17.3281 13.9464 18.7232ZM21.8074 17.0683L18.9526 20.8705C18.9154 20.9202 18.8674 20.961 18.8122 20.9896C18.7571 21.0183 18.6962 21.0341 18.6341 21.036C18.5743 21.036 18.5153 21.0231 18.461 20.9981C18.4067 20.9731 18.3585 20.9366 18.3196 20.8912L16.6357 18.9135C16.5649 18.8296 16.5304 18.721 16.5397 18.6116C16.549 18.5022 16.6014 18.4009 16.6854 18.3302C16.7693 18.2594 16.8779 18.2249 16.9873 18.2342C17.0967 18.2435 17.198 18.2959 17.2687 18.3798L18.6134 19.9603L21.1868 16.5759C21.2187 16.53 21.2595 16.491 21.3068 16.4613C21.3541 16.4316 21.4069 16.4118 21.4621 16.403C21.5173 16.3943 21.5737 16.3968 21.6279 16.4105C21.682 16.4241 21.7329 16.4486 21.7774 16.4825C21.8218 16.5163 21.859 16.5588 21.8866 16.6074C21.9142 16.6559 21.9316 16.7096 21.9379 16.7651C21.9442 16.8206 21.9392 16.8769 21.9232 16.9304C21.9071 16.9839 21.8804 17.0336 21.8447 17.0765L21.8074 17.0683Z" fill="#69777D"/>
</g>
</svg>
