<svg width="32" height="32" viewBox="0 0 32 32" fill="none" xmlns="http://www.w3.org/2000/svg">
<g id="Group 1707478550">
<path id="Vector" d="M16 32C24.8366 32 32 24.8366 32 16C32 7.16344 24.8366 0 16 0C7.16344 0 0 7.16344 0 16C0 24.8366 7.16344 32 16 32Z" fill="#FFF5F8"/>
<g id="Group">
<path id="Vector_2" d="M21.8918 5.89844L6.72461 21.0683" stroke="#EB2B65" stroke-miterlimit="10"/>
<path id="Vector_3" d="M24.3388 8.71436L19.491 13.5621L22.1685 16.1474C22.1685 16.1474 19.9522 18.9171 17.5053 20.3495C15.0583 21.7818 12.7959 23.0731 9.5161 23.1654C9.04408 23.1654 8.47168 23.1084 8.47168 23.1084" stroke="#EB2B65" stroke-miterlimit="10"/>
<path id="Vector_4" d="M16.854 10.939L19.4854 13.5704" stroke="#EB2B65" stroke-miterlimit="10"/>
</g>
</g>
</svg>
