<svg width="23" height="24" viewBox="0 0 23 24" fill="none" xmlns="http://www.w3.org/2000/svg">
<path id="Vector" d="M21.82 4.1C21.25 3.4 20.4 3 19.5 3H5.74L5.7 2.65C5.52 1.14 4.24 0 2.72 0H1.5C0.95 0 0.5 0.45 0.5 1C0.5 1.55 0.95 2 1.5 2H2.72C3.23 2 3.65 2.38 3.71 2.88L5.09 14.58C5.39 17.1 7.52 19 10.06 19H18.5C19.05 19 19.5 18.55 19.5 18C19.5 17.45 19.05 17 18.5 17H10.06C8.77 17 7.66 16.17 7.24 15H16.66C19.04 15 21.1 13.31 21.56 10.98L22.44 6.59C22.62 5.71 22.39 4.8 21.82 4.1ZM9.5 22C9.5 23.1 8.6 24 7.5 24C6.4 24 5.5 23.1 5.5 22C5.5 20.9 6.4 20 7.5 20C8.6 20 9.5 20.9 9.5 22ZM18.5 22C18.5 23.1 17.6 24 16.5 24C15.4 24 14.5 23.1 14.5 22C14.5 20.9 15.4 20 16.5 20C17.6 20 18.5 20.9 18.5 22Z" fill="#69777D"/>
</svg>
