<svg width="25" height="24" viewBox="0 0 25 24" fill="none" xmlns="http://www.w3.org/2000/svg">
<g id="exchange 1" clip-path="url(#clip0_1058_1023)">
<path id="Vector" d="M24.4841 18.9574H5.19111L7.09111 20.8574L4.96611 22.9754L1.21611 19.2254C0.983892 18.9933 0.799685 18.7176 0.674007 18.4143C0.548329 18.1109 0.483643 17.7858 0.483643 17.4574C0.483643 17.1291 0.548329 16.8039 0.674007 16.5006C0.799685 16.1972 0.983892 15.9216 1.21611 15.6894L4.96611 11.9394L7.08411 14.0614L5.18411 15.9614H24.4841V18.9574ZM17.8841 9.90042L20.0061 12.0224L23.7561 8.27242C23.9883 8.04027 24.1725 7.76464 24.2982 7.46128C24.4239 7.15793 24.4886 6.83278 24.4886 6.50442C24.4886 6.17606 24.4239 5.85092 24.2982 5.54756C24.1725 5.2442 23.9883 4.96858 23.7561 4.73642L20.0021 0.982422L17.8841 3.10042L19.7841 5.00042H0.484109V8.00042H19.7771L17.8841 9.90042Z" fill="#7249C1"/>
</g>
<defs>
<clipPath id="clip0_1058_1023">
<rect width="24" height="24" fill="white" transform="translate(0.484131)"/>
</clipPath>
</defs>
</svg>
